Coordinates
version=1
nRows=37
nColumns=19
inDegrees=yes

Units are S.I. units (second, meters, Newtons, ...)
If the header above contains a line with 'inDegrees', this indicates whether rotational values are in degrees (yes) or radians (no).

endheader
time	pelvis_tilt	pelvis_list	pelvis_rotation	pelvis_tx	pelvis_ty	pelvis_tz	hip_flexion_r	hip_adduction_r	hip_rotation_r	knee_angle_r	knee_angle_r_beta	ankle_angle_r	hip_flexion_l	hip_adduction_l	hip_rotation_l	knee_angle_l	knee_angle_l_beta	ankle_angle_l
     12.06666667	     -4.44208416	     -8.13640047	     -0.90705877	      2.05955713	      0.97707561	      1.03799962	     29.13599495	     11.45539022	     -8.35762369	      8.00539117	      0.13972043	     -4.40818177	    -15.33685014	    -10.43785267	    -15.32857114	     70.02557954	      1.22217692	    -16.13005517
     12.07333333	     -3.89219254	     -8.84330790	     -1.80397741	      2.05894951	      0.97363090	      1.03883569	     28.65442592	     12.26332118	     -9.71429744	     10.78087718	      0.18816180	     -4.26396790	    -14.57207465	    -11.32201701	    -16.24761308	     74.24893408	      1.29588837	    -15.45880651
     12.08000000	     -4.05169969	     -9.29416922	     -2.85381287	      2.05799659	      0.96910840	      1.03983903	     29.20716840	     12.69965124	    -11.01044993	     14.40758694	      0.25145983	     -3.72643404	    -12.86722055	    -11.92235769	    -16.93792644	     78.56008042	      1.37113206	    -14.70918230
     12.08666667	     -3.49940892	    -10.09413445	     -3.82467403	      2.05708661	      0.96524919	      1.04075411	     28.82050502	     13.43145580	    -12.09170252	     17.93744508	      0.31306748	     -2.90996250	    -12.02557828	    -12.98537571	    -17.78379467	     82.62996190	      1.44216490	    -13.85633314
     12.09333333	     -4.02298171	    -10.35924305	     -4.90775785	      2.05569626	      0.96001017	      1.04178716	     29.83059018	     13.56839275	    -12.89803046	     22.13602667	      0.38634655	     -1.58316242	     -9.67905052	    -13.48697807	    -18.13933804	     86.84064142	      1.51565512	    -12.75661228
     12.10000000	     -4.10310490	    -10.78017384	     -5.92036472	      2.05422424	      0.95536690	      1.04276606	     30.18830403	     13.88252712	    -13.34664366	     26.13183354	      0.45608653	     -0.01217574	     -7.80678368	    -14.21357849	    -18.48158562	     90.79800834	      1.58472420	    -11.61293598
     12.10666667	     -4.17962481	    -11.12278427	     -6.86580315	      2.05263139	      0.95087857	      1.04371868	     30.42213914	     14.16747623	    -13.40706120	     30.00272978	      0.52364642	      1.94396158	     -5.79769030	    -14.90639627	    -18.60860015	     94.59110973	      1.65092631	    -10.28249077
     12.11333333	     -4.54153842	    -11.25192843	     -7.77484600	      2.05072350	      0.94635022	      1.04472629	     30.87407614	     14.32249590	    -13.15906668	     33.73415262	      0.58877203	      4.11938493	     -3.23619174	    -15.44453885	    -18.44923641	     98.24138343	      1.71463560	     -9.13840968
     12.12000000	     -4.78854769	    -11.29845199	     -8.57507887	      2.04857372	      0.94232139	      1.04569852	     31.01381858	     14.46634744	    -12.61183953	     37.11840404	      0.64783836	      6.46570020	     -0.61627808	    -15.93821895	    -18.08296375	    101.65779179	      1.77426318	     -7.79808640
     12.12666667	     -4.85712933	    -11.28496446	     -9.25333125	      2.04623947	      0.93892385	      1.04655724	     30.72916698	     14.59266740	    -11.83383481	     40.07345221	      0.69941368	      8.86998988	      1.98682297	    -16.35099681	    -17.49816355	    104.79743362	      1.82906026	     -6.31787371
     12.13333333	     -5.51530464	    -10.96941639	     -9.84880394	      2.04363683	      0.93530744	      1.04738054	     30.91345302	     14.50331906	    -10.94379182	     42.66845396	      0.74470501	     11.34634941	      5.58071267	    -16.50449366	    -16.54328616	    107.74046381	      1.88042583	     -5.26273938
     12.14000000	     -5.86940467	    -10.65959483	    -10.28020367	      2.04089779	      0.93253987	      1.04799277	     30.46834595	     14.39905651	     -9.93729802	     44.69793470	      0.78012613	     13.74432668	      8.98564745	    -16.60888848	    -15.44215465	    110.33213188	      1.92565897	     -4.03128874
     12.14666667	     -6.22393733	    -10.28762267	    -10.56792343	      2.03809534	      0.93026196	      1.04842122	     29.75751180	     14.19354442	     -8.95002270	     46.23113166	      0.80688546	     16.02125978	     12.55979426	    -16.61615587	    -14.19061288	    112.58437880	      1.96496810	     -2.83484577
     12.15333333	     -6.49857157	     -9.90797684	    -10.70109319	      2.03536705	      0.92857012	      1.04867965	     28.66591304	     13.91541775	     -8.00347176	     47.22776814	      0.82428005	     18.11956983	     16.15184393	    -16.53809820	    -12.79263568	    114.44971944	      1.99752443	     -1.72476671
     12.16000000	     -6.79545603	     -9.50570089	    -10.71093615	      2.03282713	      0.92739755	      1.04876545	     27.30220684	     13.57051946	     -7.09406678	     47.69388021	      0.83241524	     20.02302017	     19.83069752	    -16.35408583	    -11.31764898	    115.91129701	      2.02303377	     -0.86255142
     12.16666667	     -6.51981969	     -9.13942151	    -10.78313782	      2.03076239	      0.92755410	      1.04895141	     24.97188444	     13.24472172	     -5.92299264	     47.61381730	      0.83101788	     21.69740462	     22.64822063	    -16.16514071	    -10.20206999	    116.79560797	      2.03846791	     -0.13366698
     12.17333333	     -6.64337394	     -8.87656033	    -10.32288631	      2.02900906	      0.92749892	      1.04858269	     22.88604060	     12.74654637	     -5.59457022	     47.11930538	      0.82238702	     22.98659668	     26.14172447	    -15.84841702	     -8.45819750	    117.46329527	      2.05012125	      0.86320122
     12.18000000	     -6.60280812	     -8.42762468	    -10.17589656	      2.02782815	      0.92838323	      1.04872109	     20.36477891	     12.23819776	     -4.71206378	     46.21301479	      0.80656927	     23.97690092	     29.09791753	    -15.45619430	     -7.37757077	    117.54085348	      2.05147490	      1.44476093
     12.18666667	     -6.44807768	     -8.24229387	     -9.55252880	      2.02720964	      0.92977268	      1.04837888	     17.47480758	     11.78162409	     -4.48881369	     44.81122662	      0.78210345	     24.42171455	     31.93973926	    -15.03880517	     -5.87029468	    117.31194145	      2.04747963	      2.11068402
     12.19333333	     -6.11370971	     -7.95582845	     -8.96405192	      2.02724546	      0.93197634	      1.04830142	     14.20941686	     11.29128606	     -4.08965973	     43.06260270	      0.75158420	     24.45858889	     34.29167118	    -14.54408428	     -4.73570046	    116.59623150	      2.03498814	      2.69983514
     12.20000000	     -5.32360062	     -7.56814751	     -8.42095358	      2.02806704	      0.93541194	      1.04843223	     10.24485145	     10.68537916	     -3.55719492	     40.89071505	      0.71367761	     23.96973122	     35.75588363	    -13.97270190	     -4.06458689	    115.36803641	      2.01355209	      3.33886194
     12.20666667	     -4.70769287	     -7.05474116	     -7.80947288	      2.02938292	      0.93905353	      1.04856054	      6.40043426	      9.99093082	     -3.14395155	     38.47691962	      0.67154893	     22.91302280	     37.22597415	    -13.23345470	     -3.53244723	    113.80427276	      1.98625926	      3.94701061
     12.21333333	     -4.33560641	     -6.42229919	     -7.09215294	      2.03113221	      0.94276541	      1.04862128	      2.79264552	      9.22184405	     -2.94473499	     35.87165736	      0.62607853	     21.23777757	     38.79426613	    -12.29614078	     -3.08142632	    111.93696050	      1.95366852	      4.49240271
     12.22000000	     -3.74725155	     -5.58824055	     -6.47277302	      2.03346663	      0.94719096	      1.04876261	     -1.10474253	      8.25259912	     -2.69961270	     33.03376125	      0.57654790	     18.95404501	     39.75661176	    -11.22337784	     -3.07736055	    109.66637118	      1.91403926	      5.09938868
     12.22666667	     -3.22260827	     -4.54226315	     -5.94443247	      2.03612000	      0.95187631	      1.04899260	     -4.88910778	      7.08678071	     -2.51377843	     30.10227817	      0.52538387	     16.06954794	     40.51707073	    -10.02886595	     -3.41080818	    107.07120206	      1.86874501	      5.72865985
     12.23333333	     -2.99326959	     -3.39435605	     -5.33503865	      2.03902522	      0.95634607	      1.04900630	     -8.27348137	      5.85972404	     -2.70220164	     27.16206098	      0.47406740	     12.58536836	     41.44823998	     -8.64138686	     -3.75509527	    104.24365143	      1.81939494	      6.25433287
     12.24000000	     -3.17427866	     -2.19416595	     -4.60648904	      2.04199591	      0.96037908	      1.04865988	    -11.07118638	      4.64110294	     -3.35454600	     24.34276568	      0.42486141	      8.56072123	     42.71438309	     -7.04350062	     -4.01113460	    101.21357660	      1.76651016	      6.60963303
     12.24666667	     -3.08747769	     -0.83182377	     -4.04224682	      2.04531058	      0.96488202	      1.04851600	    -14.09780150	      3.25604046	     -4.07208715	     21.49797788	      0.37521050	      4.11607077	     43.35548955	     -5.47896879	     -4.66605596	     97.84702167	      1.70775269	      7.03888706
     12.25333333	     -3.37846329	      0.48603749	     -3.39931680	      2.04846217	      0.96883011	      1.04804965	    -16.48812890	      1.97102571	     -5.23731704	     18.98621724	      0.33137200	     -0.63381565	     44.32042740	     -3.82987123	     -5.17417381	     94.31741415	      1.64614942	      7.26858884
     12.26000000	     -3.84854801	      1.73824709	     -2.70791218	      2.05159560	      0.97245880	      1.04744461	    -18.50075280	      0.80864945	     -6.75298380	     16.75121112	      0.29236379	     -5.50222973	     45.32529001	     -2.23099359	     -5.64621926	     90.58829824	      1.58106407	      7.38046341
     12.26666667	     -4.65420075	      2.81065981	     -1.87079140	      2.05454750	      0.97548332	      1.04656974	    -19.89317481	     -0.10980004	     -8.70189441	     14.99048485	      0.26163332	    -10.28558417	     46.59257463	     -0.68347998	     -5.90806395	     86.71264753	      1.51342120	      7.27448373
     12.27333333	     -5.39918054	      3.74697836	     -1.10537194	      2.05727464	      0.97847743	      1.04563452	    -21.08237816	     -0.91505474	    -10.74368846	     13.68629025	      0.23887083	    -14.85431876	     47.60415083	      0.70557305	     -6.16807284	     82.61666521	      1.44193282	      7.12545841
     12.28000000	     -6.01840034	      4.48849248	     -0.38943113	      2.05974724	      0.98141953	      1.04479278	    -22.13362664	     -1.55201840	    -12.90265021	     12.88332001	      0.22485635	    -19.01483453	     48.31552869	      1.82149218	     -6.45499289	     78.34761180	      1.36742379	      6.95459648
     12.28666667	     -6.79200083	      5.00108537	      0.37035632	      2.06197012	      0.98391593	      1.04377313	    -22.70618394	     -2.00376711	    -15.16676470	     12.71940947	      0.22199557	    -22.50801935	     49.05415676	      2.75784021	     -6.64990221	     73.92056355	      1.29015722	      6.67433557
     12.29333333	     -7.73510150	      5.24750047	      1.18030865	      2.06382988	      0.98591093	      1.04253950	    -22.75212935	     -2.28861158	    -17.50342015	     13.28322890	      0.23183608	    -25.20907285	     49.85112640	      3.49735508	     -6.74315134	     69.35817052	      1.21052844	      6.29108826
     12.30000000	     -8.29627562	      5.36953360	      1.90905367	      2.06539605	      0.98804631	      1.04126596	    -22.95671214	     -2.54249874	    -19.64851288	     14.38170000	      0.25100802	    -27.20625679	     50.06939719	      4.06838609	     -6.94396061	     64.63266108	      1.12805274	      5.93620143
     12.30666667	     -8.88456903	      5.34452285	      2.63606459	      2.06665454	      0.98979075	      1.03976139	    -22.86742209	     -2.77329468	    -21.60373688	     16.10328081	      0.28105527	    -28.38889280	     50.17589479	      4.52729707	     -7.18666116	     59.76258426	      1.04305386	      5.54404965
